# xmcd
#
# Track frame offsets: 
#        183
#        13288
#        25733
#        40188
#        50765
#        70253
#        91765
#        102820
#        121138
#        136490
#        155113
#        169218
#
# Disc length: 2493 seconds
#
# Revision: 3
# Processed by: cddbd v1.5.2PL0 Copyright (c) Steve Scherf et al.
# Submitted via: ExactAudioCopy v0.99pb4
#
DISCID=9f09bb0c
DTITLE=The Godfathers - Hit By Hit
DYEAR=1986
DGENRE=Alternative Rock
TTITLE0=I Want Everything
TTITLE1=This Damn Nation
TTITLE2=I want You
TTITLE3=Cant Leave Her Alone
TTITLE4=Sun Arise
TTITLE5=Cold Turkey
TTITLE6=John Barry
TTITLE7=Sticks and Stones
TTITLE8=Im Unsatisfied
TTITLE9=Lonely Man
TTITLE10=Angela
TTITLE11=Gone To Texas
EXTD=
EXTT0=
EXTT1=
EXTT2=
EXTT3=
EXTT4=
EXTT5=
EXTT6=
EXTT7=
EXTT8=
EXTT9=
EXTT10=
EXTT11=
PLAYORDER=
